<svg xmlns="http://www.w3.org/2000/svg" xmlns:xlink="http://www.w3.org/1999/xlink" width="36" height="36" version="1.1" viewBox="0 0 36 36"><title>Group 10</title><g id="Page-1" fill="none" fill-rule="evenodd" stroke="none" stroke-width="1"><g id="Artboard" transform="translate(-100.000000, -1269.000000)"><g id="Group-18" transform="translate(100.000000, 1269.000000)"><g id="Group-10"><rect id="Rectangle" width="36" height="36" x="0" y="0" fill="#3B43FF" rx="6"/><g id="Diagram-Duotone" transform="translate(7.000000, 5.000000)"><rect id="Rectangle" width="24" height="24" x="0" y="0"/><path id="Path" fill="#FFF" fill-rule="nonzero" d="M19.8900057,12.47 L19.8900057,12.93 C19.8940444,16.474906 17.7612227,19.6728196 14.4869288,21.0312654 C11.2126349,22.3897111 7.44237902,21.6408784 4.9357503,19.1342497 C2.42912157,16.627621 1.6802889,12.8573651 3.03873464,9.58307121 C4.39718038,6.30877735 7.59509397,4.17595561 11.14,4.17999426 L11.6,4.17999426 L11.6,12 C11.5906329,12.0596344 11.5906329,12.1203656 11.6,12.1799943 C11.6262041,12.2344022 11.6598611,12.2848877 11.7,12.33 C11.7423206,12.3712568 11.7936813,12.4020733 11.85,12.42 C11.9091792,12.4340356 11.9708208,12.4340356 12.03,12.42 L19.8900057,12.47 Z"/><path id="Path" fill="#FFF" fill-opacity=".5" fill-rule="nonzero" d="M21.63,11.05 L21.63,11.52 L13.79,11.52 C13.422262,11.52 13.0697296,11.3732453 12.81064,11.1122783 C12.5515504,10.8513112 12.4073352,10.4977283 12.4099637,10.13 L12.4099637,2.3 L12.87,2.3 C17.7018336,2.30549695 21.6189841,6.21817578 21.63,11.05 L21.63,11.05 Z"/></g></g></g></g></g></svg>