<?xml version="1.0" encoding="UTF-8"?>
<svg width="26px" height="18px" viewBox="0 0 26 18" version="1.1" xmlns="http://www.w3.org/2000/svg" xmlns:xlink="http://www.w3.org/1999/xlink">
    <title>Shape</title>
    <g id="Page-1" stroke="none" stroke-width="1" fill="none" fill-rule="evenodd">
        <g id="1_1_explorer_all_services" transform="translate(-1179.000000, -1526.000000)" fill="#FFFFFF" fill-rule="nonzero">
            <g id="Group-16" transform="translate(0.000000, 1471.000000)">
                <g id="Group-15" transform="translate(1168.000000, 40.000000)">
                    <g id="Group-14">
                        <path d="M20.4464439,15.0001828 L20.6692374,15.2594839 C16.6589546,16.3615135 14.832048,18.068579 14.832048,18.068579 C14.832048,18.068579 15.3221937,17.8092779 16.1465296,17.4635431 C18.5304199,16.4479472 20.4241645,16.1886461 21.2039417,16.1022124 C21.3376178,16.080604 21.4490146,16.0589955 21.5826907,16.0589955 C22.9417309,15.8861281 24.479006,15.8429113 26.0831191,16.0157787 C28.1996572,16.2534714 30.4721508,16.8585072 32.7892031,18.068579 C32.7892031,18.068579 31.0291345,16.4479472 27.2416452,15.3459175 L27.5535561,15.0001828 L27.6340899,15.0005281 C28.1361535,15.0093945 30.9092504,15.1555576 33.7917738,17.2474589 L33.803346,17.2679438 C34.0129627,17.6417976 37,23.0859034 37,29.737128 C37,29.7155195 35.1285347,32.8271326 30.2047986,32.9783916 C30.2047986,32.9783916 29.4027421,32.0492293 28.7343616,31.2497177 C31.6529563,30.450206 32.7669237,28.6999236 32.7669237,28.6999236 C31.8534704,29.2833511 30.9845758,29.6939111 30.2047986,29.9748206 C29.0908312,30.4285975 28.0214225,30.7095071 26.9742931,30.9039829 C24.8354756,31.2929345 22.8748929,31.1848924 21.2039417,30.8823744 C19.9340189,30.6446818 18.8423308,30.3205554 17.9288775,29.9532122 C17.4164524,29.7587364 16.8594687,29.5210437 16.302485,29.2185258 C16.235647,29.1753089 16.1688089,29.1537005 16.1019709,29.1104837 C16.0574122,29.0888752 16.0351328,29.0672668 16.0128535,29.0672668 C15.6118252,28.8511826 15.3890317,28.6999236 15.3890317,28.6999236 C15.3890317,28.6999236 16.4584404,30.4069891 19.2879177,31.2281092 C18.6195373,32.0492293 17.7952014,33 17.7952014,33 C12.8714653,32.848741 11,29.737128 11,29.737128 C11,22.8440407 14.2082262,17.2474589 14.2082262,17.2474589 C17.4164524,14.9353575 20.4464439,15.0001828 20.4464439,15.0001828 Z M27.9768638,22.9736912 C26.7069409,22.9736912 25.7043702,24.032504 25.7043702,25.3506179 C25.7043702,26.6687318 26.7292202,27.7275445 27.9768638,27.7275445 C29.2467866,27.7275445 30.2493573,26.6687318 30.2493573,25.3506179 C30.2493573,24.032504 29.2245073,22.9736912 27.9768638,22.9736912 Z M19.8449015,22.9736912 C18.5749786,22.9736912 17.5724079,24.032504 17.5724079,25.3506179 C17.5724079,26.6687318 18.5972579,27.7275445 19.8449015,27.7275445 C21.1148243,27.7275445 22.117395,26.6687318 22.117395,25.3506179 C22.1396744,24.032504 21.1148243,22.9736912 19.8449015,22.9736912 Z" id="Shape"></path>
                    </g>
                </g>
            </g>
        </g>
    </g>
</svg>