<svg xmlns="http://www.w3.org/2000/svg" xmlns:xlink="http://www.w3.org/1999/xlink" width="134" height="27" version="1.1" viewBox="0 0 134 27"><title>Group 6</title><defs><linearGradient id="linearGradient-1" x1="50%" x2="50%" y1="0%" y2="100%"><stop offset="0%" stop-color="#B1B4FF" stop-opacity=".628"/><stop offset="100%" stop-color="#767BFF"/></linearGradient><linearGradient id="linearGradient-2" x1="50%" x2="50%" y1="0%" y2="100%"><stop offset="0%" stop-color="#2947AE"/><stop offset="100%" stop-color="#343BCC"/></linearGradient><linearGradient id="linearGradient-3" x1="50%" x2="50%" y1="0%" y2="100%"><stop offset="0%" stop-color="#FFF"/><stop offset="100%" stop-color="#767BFF"/></linearGradient></defs><g id="Page-1" fill="none" fill-rule="evenodd" stroke="none" stroke-width="1"><g id="1_1_explorer_all_services" transform="translate(-168.000000, -1522.000000)"><g id="Group-16" transform="translate(0.000000, 1471.000000)"><g id="Group-6" transform="translate(168.000000, 51.000000)"><path id="NFTBANK" fill="#7C80E2" fill-rule="nonzero" d="M44,21 L44,6 L44.793068,6 L54.1675381,14.34 L54.1675381,6 L55.8756845,6 L55.8756845,21 L55.1029516,21 L45.7081464,12.66 L45.7081464,21 L44,21 Z M57.7427084,21 L57.7427084,6 L66.2224352,6 L66.2224352,7.66 L61.1386661,7.66 L61.1386661,12.66 L64.5346239,12.66 L64.5346239,14.34 L61.1386661,14.34 L61.1386661,21 L57.7427084,21 Z M71.1136869,21 L71.1136869,7.66 L67.7177292,7.66 L67.7177292,6 L77.8852673,6 L77.8852673,7.66 L74.4893095,7.66 L74.4893095,21 L71.1136869,21 Z M84.2718129,21 L84.2718129,6 L91.0637284,6 C91.9855898,6 92.7786499,6.3299967 93.4429323,6.99 C94.1072148,7.6500033 94.4393511,8.4333288 94.4393511,9.34 L94.4393511,10.16 C94.4393511,11.1466716 94.158052,11.9166639 93.5954454,12.47 C93.0328388,13.0233361 92.1889416,13.366666 91.0637284,13.5 C92.1889416,13.5 93.0328388,13.8366633 93.5954454,14.51 C94.158052,15.1833367 94.4393511,15.9599956 94.4393511,16.84 L94.4393511,17.66 C94.4393511,18.5666712 94.1072148,19.3499967 93.4429323,20.01 C92.7786499,20.6700033 91.9855898,21 91.0637284,21 L84.2718129,21 Z M87.6677707,12.66 L89.355582,12.66 C89.8300695,12.66 90.2333778,12.4966683 90.565519,12.17 C90.8976603,11.8433317 91.0637284,11.4533356 91.0637284,11 L91.0637284,9.34 C91.0637284,8.873331 90.8976603,8.4766683 90.565519,8.15 C90.2333778,7.8233317 89.8300695,7.66 89.355582,7.66 L87.6677707,7.66 L87.6677707,12.66 Z M87.6677707,19.34 L89.355582,19.34 C89.8300695,19.34 90.2333778,19.173335 90.565519,18.84 C90.8976603,18.506665 91.0637284,18.1133356 91.0637284,17.66 L91.0637284,16 C91.0637284,14.8933278 90.494352,14.34 89.355582,14.34 L87.6677707,14.34 L87.6677707,19.34 Z M96.32671,21 L96.32671,9.34 C96.32671,8.4199954 96.6622354,7.6333366 97.3332963,6.98 C98.0043572,6.3266634 98.8008063,6 99.7226677,6 L103.118625,6 C104.040487,6 104.833547,6.3299967 105.497829,6.99 C106.162112,7.6500033 106.494248,8.4333288 106.494248,9.34 L106.494248,21 L103.118625,21 L103.118625,14.34 L99.7226677,14.34 L99.7226677,21 L96.32671,21 Z M99.7226677,12.66 L103.118625,12.66 L103.118625,9.34 C103.118625,8.873331 102.952557,8.4766683 102.620416,8.15 C102.288275,7.8233317 101.884967,7.66 101.410479,7.66 C100.949548,7.66 100.553018,7.8233317 100.220877,8.15 C99.8887359,8.4766683 99.7226677,8.873331 99.7226677,9.34 L99.7226677,12.66 Z M108.381607,21 L108.381607,6 L109.174675,6 L118.549145,14.34 L118.549145,6 L120.257292,6 L120.257292,21 L119.484559,21 L110.089753,12.66 L110.089753,21 L108.381607,21 Z M122.124315,21 L122.124315,6 L125.520273,6 L125.520273,12.12 L131.010744,6 L134,6 L127.208085,13.5 L134,21 L130.604042,21 L125.520273,15.16 L125.520273,21 L122.124315,21 Z"/><g id="Group-5"><g id="Group-11" transform="translate(0.000000, 0.627273)"><g id="Group-3"><path id="Rectangle" fill="url(#linearGradient-1)" d="M17.9952267,0.471410528 L28.731629,6.32105136 C29.448571,6.71167131 29.8947368,7.46285224 29.8947368,8.2793017 L29.8947368,22.7703391 C29.8947368,24.0019587 28.8963119,25.0003836 27.6646924,25.0003836 C27.2919203,25.0003836 26.925095,24.9069376 26.5977557,24.7285895 L15.8613534,18.8789486 C15.1444114,18.4883287 14.6982456,17.7371478 14.6982456,16.9206983 L14.6982456,2.42966087 C14.6982456,1.19804133 15.6966705,0.199616427 16.9282901,0.199616427 C17.3010622,0.199616427 17.6678874,0.293062403 17.9952267,0.471410528 Z"/><path id="Rectangle" fill="url(#linearGradient-2)" d="M3.33900081,0.50341689 L14.280336,6.785843 C14.4760282,6.89820791 14.6535323,7.03962406 14.8067838,7.20526007 L28.9492998,22.4906509 C29.5369173,23.1257544 29.4984222,24.1169657 28.8633186,24.7045831 C28.3725855,25.1586246 27.6477961,25.2512261 27.0586703,24.935151 L15.2785725,18.6149465 C15.0197842,18.4761026 14.7909691,18.2875098 14.605264,18.0599957 L1.77712414,2.34376509 C1.34852561,1.81867312 1.42674901,1.04555422 1.95184098,0.616955688 C2.34599279,0.295235124 2.89777995,0.250071438 3.33900081,0.50341689 Z"/><path id="Rectangle" fill="url(#linearGradient-3)" d="M3.2969811,0.471410528 L14.0333834,6.32105136 C14.7503254,6.71167131 15.1964912,7.46285224 15.1964912,8.2793017 L15.1964912,22.7703391 C15.1964912,24.0019587 14.1980663,25.0003836 12.9664468,25.0003836 C12.5936747,25.0003836 12.2268494,24.9069376 11.8995101,24.7285895 L1.16310779,18.8789486 C0.446165829,18.4883287 -3.09745609e-15,17.7371478 -3.19744231e-15,16.9206983 L-3.19744231e-15,2.42966087 C-2.90418299e-15,1.19804133 0.998424906,0.199616427 2.23004444,0.199616427 C2.60281657,0.199616427 2.96964181,0.293062403 3.2969811,0.471410528 Z" opacity=".612"/></g></g></g></g></g></g></g></svg>