<?xml version="1.0" encoding="UTF-8"?>
<svg width="24px" height="24px" viewBox="0 0 24 24" version="1.1" xmlns="http://www.w3.org/2000/svg" xmlns:xlink="http://www.w3.org/1999/xlink">
    <title>Document-Found-Fill</title>
    <g id="Page-1" stroke="none" stroke-width="1" fill="none" fill-rule="evenodd">
        <g id="Artboard" transform="translate(-491.000000, -23.000000)">
            <g id="Group-39" transform="translate(274.000000, 23.000000)">
                <g id="Document-Found-Fill" transform="translate(217.000000, 0.000000)">
                    <rect id="Rectangle" x="0" y="0" width="24" height="24"></rect>
                    <path d="M17.88,14.59 C17.5864874,14.4729684 17.2756094,14.4053863 16.96,14.39 L16.73,14.39 C15.9243355,14.3901137 15.1474312,14.6894713 14.55,15.23 C13.9735988,15.7859774 13.6183136,16.5320761 13.55,17.33 C13.4593823,18.5439264 14.0568377,19.7062103 15.0967384,20.3390099 C16.1366391,20.9718095 17.4434844,20.9683293 18.48,20.33 C19.1676958,19.9076076 19.6683914,19.2388213 19.88,18.46 C20.0995322,17.6830503 20.021076,16.8521284 19.66,16.13 C19.2911969,15.4140103 18.6718556,14.8587388 17.92,14.57 L17.88,14.59 Z M18.75,17.11 L17,18.84 C16.9138991,18.930198 16.8076695,18.9987333 16.69,19.04 C16.5796951,19.088137 16.4603342,19.1120092 16.34,19.11 C16.2175416,19.1096389 16.0959561,19.0893746 15.98,19.05 C15.8666652,19.0012989 15.7645518,18.9298195 15.68,18.84 L14.87,18 C14.7867453,17.9142692 14.7401218,17.7995036 14.74,17.68 C14.7406049,17.5576258 14.7869789,17.4399072 14.87,17.35 C14.9571853,17.2615701 15.0758244,17.2112384 15.2,17.21 C15.3246421,17.2089489 15.4441368,17.2596436 15.53,17.35 L16.35,18.17 L18.11,16.44 C18.1931267,16.3519168 18.3088856,16.3019934 18.43,16.3019934 C18.5511144,16.3019934 18.6668733,16.3519168 18.75,16.44 C18.7920271,16.479801 18.8259808,16.5273362 18.85,16.58 C18.9222376,16.7546435 18.8828407,16.9555679 18.75,17.09 L18.75,17.11 Z" id="Shape" fill="#FFFFFF" fill-rule="nonzero"></path>
                    <path d="M15.58,3.14996377 L5.42,3.14996377 C5.04522466,3.14730561 4.68501687,3.2949908 4.42,3.56 C4.15403231,3.82437789 4.00617442,4.18500687 4.00992757,4.56 L4.00992757,17.46 C4.00731259,17.826816 4.1518419,18.179388 4.41122694,18.4387731 C4.67061199,18.6981581 5.02318399,18.8426874 5.39,18.8400368 L12.78,18.8400368 C12.5810667,18.2201153 12.536442,17.5610429 12.65,16.92 C12.9795647,14.9151878 14.7183167,13.4478508 16.75,13.46 L17.0001171,13.46 L17.0001171,4.54 C17.0023818,4.35518556 16.9684041,4.17170595 16.9,4 C16.8238154,3.82756662 16.7151752,3.67139641 16.58,3.54 C16.4478115,3.41081702 16.291514,3.3088839 16.12,3.24 C15.9462673,3.18014014 15.7637558,3.14972155 15.58,3.14996377 Z M13.58,12.86 L7.07,12.86 C6.94962629,12.8645613 6.83308844,12.8172178 6.75,12.73 C6.65964362,12.6441368 6.60894891,12.5246421 6.60998397,12.4 C6.62020451,12.150298 6.82029795,11.9502045 7.07,11.94 L13.54,11.94 C13.789702,11.9502045 13.9897955,12.150298 14.000016,12.4 C14.0010511,12.5246421 13.9503564,12.6441368 13.86,12.73 C13.7769116,12.8172178 13.6603737,12.8645613 13.54,12.86 L13.58,12.86 Z M13.58,9.99 L7.07,9.99 C6.95049642,9.98987825 6.83573081,9.94325472 6.75,9.86 C6.66157011,9.77281468 6.6112384,9.65417564 6.61,9.53 C6.62020451,9.28029795 6.82029795,9.08020451 7.07,9.07 L13.54,9.07 C13.789702,9.08020451 13.9897955,9.28029795 14,9.53 C13.9987616,9.65417564 13.9484299,9.77281468 13.86,9.86 C13.7758883,9.94692352 13.6609246,9.99722014 13.54,10 L13.58,9.99 Z M13.58,7.13 L7.07,7.13 C6.95049642,7.12987825 6.83573081,7.08325472 6.75,7 C6.6608018,6.91337816 6.61046841,6.79433689 6.61046841,6.67 C6.61046841,6.54566311 6.6608018,6.42662184 6.75,6.34 C6.83573081,6.25674528 6.95049642,6.21012175 7.07,6.21 L13.54,6.21 C13.6595036,6.21012175 13.7742692,6.25674528 13.86,6.34 C13.9491982,6.42662184 13.9995316,6.54566311 13.9995316,6.67 C13.9995316,6.79433689 13.9491982,6.91337816 13.86,7 C13.7742692,7.08325472 13.6595036,7.12987825 13.54,7.13 L13.58,7.13 Z" id="Shape" fill="#FFFFFF" fill-rule="nonzero"></path>
                </g>
            </g>
        </g>
    </g>
</svg>