<svg xmlns="http://www.w3.org/2000/svg" xmlns:xlink="http://www.w3.org/1999/xlink" width="24" height="24" version="1.1" viewBox="0 0 24 24"><title>Users-Duotone</title><g id="Page-1" fill="none" fill-rule="evenodd" stroke="none" stroke-width="1"><g id="Artboard" transform="translate(-553.000000, -4504.000000)"><g id="Group-8" transform="translate(547.000000, 4498.000000)"><g id="Users-Duotone" transform="translate(6.000000, 6.000000)"><rect id="Rectangle" width="24" height="24" x="0" y="0"/><path id="Path" fill="#FFF" fill-opacity=".5" fill-rule="nonzero" d="M7.76416667,9.562531 C8.80090611,9.55056515 9.63338471,8.70360279 9.6274688,7.66681171 C9.62148955,6.63002064 8.77934881,5.79266478 7.74254067,5.79262489 C6.70573254,5.792585 5.86352736,6.62987605 5.8575,7.66666667 C5.8575,8.17135556 6.05871719,8.65521724 6.4166014,9.01106802 C6.77448561,9.3669188 7.25948601,9.56538394 7.76416667,9.562531 L7.76416667,9.562531 Z"/><path id="Path" fill="#FFF" fill-rule="nonzero" d="M19.1391667,7.66666667 C19.1464507,8.24044638 18.9803113,8.80305492 18.6625,9.28083333 C18.3473502,9.76390861 17.8944863,10.1412952 17.3625,10.3641667 C16.8313491,10.5832378 16.2480349,10.6434509 15.6833333,10.5375 C15.1106568,10.4364865 14.5819401,10.1645751 14.1666667,9.7575 C13.7541017,9.35628981 13.4743302,8.83833453 13.365,8.27333333 C13.2637214,7.70304012 13.3315057,7.11557583 13.56,6.58333333 C13.783322,6.0487423 14.1603714,5.59251253 14.6433333,5.2725 C15.1229515,4.95738093 15.6836321,4.78804784 16.2575,4.785 C16.6287777,4.79078468 16.9958905,4.86420724 17.3408333,5.00166667 C17.6880596,5.15080408 18.0041161,5.36395841 18.2725,5.63 C18.8189878,6.16781616 19.1305435,6.89997193 19.1391667,7.66666667 Z"/><path id="Path" fill="#FFF" fill-rule="nonzero" d="M22.4866667,18.5 C22.508379,18.5779609 22.508379,18.6603724 22.4866667,18.7383333 C22.4707977,18.819018 22.4333597,18.893894 22.3783333,18.955 C22.3186678,19.0340368 22.2405613,19.0972659 22.1508333,19.1391667 C22.0593519,19.1822326 21.9594445,19.2044342 21.8583333,19.2041667 L10.635,19.2041667 C10.5337684,19.205575 10.4336074,19.183317 10.3425,19.1391667 C10.2512029,19.0998183 10.1724958,19.036103 10.115,18.955 C10.0564844,18.8948318 10.0153116,18.819972 9.99583333,18.7383333 C9.9797823,18.6596996 9.9797823,18.5786337 9.99583333,18.5 C10.2597635,17.1445245 10.9643726,15.9143151 12,15.0008333 C12.2532007,14.771262 12.5290603,14.567997 12.8233333,14.3941667 C13.8392145,13.7348429 15.0247516,13.3848272 16.2358333,13.3866595 C19.2717142,13.3837977 21.8877525,15.5237804 22.4866667,18.5 L22.4866667,18.5 Z"/><path id="Path" fill="#FFF" fill-opacity=".5" fill-rule="nonzero" d="M9.1075,19.1933333 L2.16333333,19.1933333 C2.0706982,19.2150325 1.9743018,19.2150325 1.88166667,19.1933333 C1.7926852,19.1546817 1.71181895,19.0995456 1.64333333,19.0308333 C1.58710896,18.9689989 1.54627905,18.8947627 1.52416667,18.8141667 C1.50245429,18.7362057 1.50245429,18.6537943 1.52416667,18.5758333 C1.93880042,16.517891 3.34076321,14.7963702 5.27210896,13.9735996 C7.20345471,13.150829 9.41617771,13.3324612 11.1875,14.4591667 C10.0877917,15.4928365 9.33156579,16.8389187 9.02083333,18.3158333 C8.96347713,18.6105237 8.99360385,18.9155568 9.1075,19.1933333 Z"/></g></g></g></g></svg>