<svg xmlns="http://www.w3.org/2000/svg" xmlns:xlink="http://www.w3.org/1999/xlink" width="24" height="24" version="1.1" viewBox="0 0 24 24"><title>Cash-Duotone</title><g id="Page-1" fill="none" fill-rule="evenodd" stroke="none" stroke-width="1"><g id="Artboard" transform="translate(-243.000000, -4504.000000)"><g id="Group-8" transform="translate(237.000000, 4498.000000)"><g id="Cash-Duotone" transform="translate(6.000000, 6.000000)"><rect id="Rectangle" width="24" height="24" x="0" y="0"/><path id="Path" fill="#FFF" fill-opacity=".5" fill-rule="nonzero" d="M3.1625,7.1625 C2.89795693,7.82983121 2.50271728,8.4375653 2,8.95 C1.48497282,9.46148008 0.867172237,9.85772459 0.1875,10.1125 L0.1875,8.8625 C0.195203282,8.41460326 0.379381399,7.98784908 0.7,7.675 C1.03008758,7.34600102 1.48472373,7.17323928 1.95,7.2 L3.1625,7.1625 Z"/><path id="Path" fill="#FFF" fill-opacity=".5" fill-rule="nonzero" d="M3.1625,19.375 L1.9125,19.375 C1.69358932,19.3784568 1.47639564,19.3358698 1.275,19.25 C1.06259496,19.1730662 0.870310455,19.0491495 0.7125,18.8875 C0.559693727,18.7321068 0.436811088,18.5499015 0.35,18.35 C0.267322134,18.1427939 0.220813912,17.9229369 0.2125,17.7 L0.2125,16.45 C0.883801931,16.6949944 1.49374776,17.0831418 2,17.5875 C2.51338061,18.0912945 2.91017908,18.7014255 3.1625,19.375 Z"/><path id="Path" fill="#FFF" fill-opacity=".5" fill-rule="nonzero" d="M19.5,16.475 L19.5,17.725 C19.4976927,17.9486376 19.4509537,18.1695857 19.3625,18.375 C19.1908444,18.7848996 18.8622282,19.1090142 18.45,19.275 C18.243805,19.3594882 18.0228244,19.4019844 17.8,19.4 L16.65,19.4 C16.903234,18.7505051 17.2860016,18.1593417 17.775,17.6625 C18.2644148,17.154836 18.8510849,16.7509688 19.5,16.475 L19.5,16.475 Z"/><path id="Path" fill="#FFF" fill-opacity=".5" fill-rule="nonzero" d="M19.5,8.825 L19.5,10.075 C18.8476973,9.81564184 18.2561259,9.42409818 17.7625,8.925 C17.2658062,8.4245941 16.8747318,7.82948096 16.6125,7.175 L17.775,7.175 C17.9961281,7.16538287 18.2169882,7.19936134 18.425,7.275 C18.6296269,7.35992872 18.8162659,7.48294083 18.975,7.6375 C19.1354618,7.79188617 19.2667336,7.97397295 19.3625,8.175 C19.4522678,8.37999471 19.4990641,8.60121393 19.5,8.825 Z"/><path id="Path" fill="#FFF" fill-rule="nonzero" d="M23.7125,13.1375 C23.6321233,13.3445101 23.5085442,13.5320094 23.35,13.6875 C23.1879622,13.8379015 23.0021087,13.9603958 22.8,14.05 L20.5875,14.9625 L20.5875,8.825 C20.5854748,8.07347316 20.2840816,7.35372825 19.75,6.825 C19.2123418,6.29819843 18.4902227,6.00217445 17.7375,6 L10.1375,6 L18.0125,2.7375 C18.2254079,2.66290375 18.4494022,2.62486698 18.675,2.62499937 C18.8965258,2.62482018 19.1164205,2.66287887 19.325,2.7375 C19.5296269,2.82242872 19.7162659,2.94544083 19.875,3.1 C20.0360679,3.25595252 20.1636642,3.44309373 20.25,3.65 L23.7,11.85 C23.8728148,12.2609278 23.8773038,12.7232944 23.7125,13.1375 Z"/><path id="Shape" fill="#FFF" fill-rule="nonzero" d="M15.4125,7.1625 L4.425,7.1625 C4.11372587,8.14108088 3.5688673,9.02915744 2.8375,9.75 C2.10738727,10.4736517 1.21005099,11.0060426 0.225,11.3 L0.225,15.25 C1.2088073,15.5403514 2.10602932,16.0683815 2.8375,16.7875 C3.56460796,17.5117182 4.10878687,18.3986869 4.425,19.375 L15.4125,19.375 C15.7229152,18.4302202 16.2542977,17.5731517 16.9625,16.875 C17.6593151,16.162265 18.5164934,15.6265286 19.4625,15.3125 L19.4625,11.225 C18.5371998,10.9335906 17.6935752,10.4282723 17,9.75 C16.2662301,9.03106958 15.720981,8.14235645 15.4125,7.1625 Z M9.85,16.3125 C8.98562537,16.3087998 8.16755081,15.9213498 7.61704159,15.2549439 C7.06653238,14.588538 6.84047084,13.7120338 7,12.8625 C7.24168083,11.7209823 8.13348226,10.8291808 9.275,10.5875 C10.1230768,10.4236795 11.0000384,10.6464243 11.6671452,11.1950955 C12.334252,11.7437666 12.7220621,12.5612507 12.7250184,13.425 C12.7263845,13.8072707 12.6498258,14.1858112 12.5,14.5375 C12.3483967,14.8940944 12.1274525,15.2170129 11.85,15.4875 C11.5800953,15.7564074 11.2563349,15.9651476 10.9,16.1 C10.5431361,16.2458688 10.1604837,16.3181476 9.775,16.3125 L9.85,16.3125 Z"/><path id="Path" fill="#FFF" fill-opacity=".5" fill-rule="nonzero" d="M9.7875,15.15 C10.4925026,15.155054 11.1306698,14.7335895 11.4028025,14.0832065 C11.6749351,13.4328235 11.5270783,12.6824715 11.0285534,12.1839466 C10.5300285,11.6854217 9.77967647,11.5375649 9.1292935,11.8096975 C8.47891053,12.0818302 8.05744602,12.7199974 8.0625,13.425 C8.0625,14.3776912 8.83480881,15.15 9.7875,15.15 Z"/></g></g></g></g></svg>