<?xml version="1.0" encoding="UTF-8"?>
<svg width="24px" height="24px" viewBox="0 0 24 24" version="1.1" xmlns="http://www.w3.org/2000/svg" xmlns:xlink="http://www.w3.org/1999/xlink">
    <title>Rhythm-Duotone</title>
    <g id="Page-1" stroke="none" stroke-width="1" fill="none" fill-rule="evenodd">
        <g id="Artboard" transform="translate(-1173.000000, -4504.000000)">
            <g id="Group-8" transform="translate(1167.000000, 4498.000000)">
                <g id="Rhythm-Duotone" transform="translate(6.000000, 6.000000)">
                    <rect id="Rectangle" x="0" y="0" width="24" height="24"></rect>
                    <path d="M20.0616667,12.6183333 L13.2483333,20.6333333 C12.9855588,20.9552035 12.5904844,21.1398578 12.175,21.135 C11.9702289,21.1437439 11.7663065,21.1037592 11.58,21.0183333 C11.3940965,20.9370254 11.2272059,20.8178179 11.09,20.6683333 L3.55333333,12.2333333 C3.32665041,12.0181023 3.12330313,11.7795603 2.94666667,11.5216667 L4.93,11.5216667 L7.73,8.745 L10.5183333,11.5333333 L14.8233333,15.8383333 L18.055,12.6066667 L20.0616667,12.6183333 Z" id="Path" fill="#FFFFFF" fill-rule="nonzero"></path>
                    <path d="M22.0566667,8.26666667 C22.0477159,9.42997099 21.6721255,10.5608247 20.9833333,11.4983333 L17.67,11.4983333 L14.87,14.3333333 L7.765,7.17 L4.53333333,10.4016667 L2.38666667,10.4016667 C2.09374936,9.71982584 1.94290046,8.98542987 1.9433324,8.24333333 C1.94217522,5.33119726 4.25902181,2.94712075 7.17,2.865 C8.0467724,2.87058392 8.907069,3.10374842 9.66666667,3.54166667 C10.4308685,3.979186 11.0696718,4.60593642 11.5216667,5.36166667 L11.9883333,6.09666667 L12.4433324,5.36166667 C12.9041877,4.60084048 13.5556641,3.97349284 14.3333333,3.54166667 C15.0993712,3.09881286 15.9684982,2.86543617 16.8533333,2.865 C19.769641,2.94750881 22.0832582,5.34931324 22.0566667,8.26666667 Z" id="Path" fill-opacity="0.5" fill="#FFFFFF" fill-rule="nonzero"></path>
                </g>
            </g>
        </g>
    </g>
</svg>