<svg xmlns="http://www.w3.org/2000/svg" xmlns:xlink="http://www.w3.org/1999/xlink" width="44" height="38" version="1.1" viewBox="0 0 44 38"><title>Group 5</title><defs><linearGradient id="linearGradient-1" x1="50%" x2="50%" y1="0%" y2="100%"><stop offset="0%" stop-color="#9CA0FF"/><stop offset="100%" stop-color="#3B6EFF"/></linearGradient><linearGradient id="linearGradient-2" x1="50%" x2="50%" y1="0%" y2="100%"><stop offset="0%" stop-color="#5E7DE4"/><stop offset="100%" stop-color="#3B43FF"/></linearGradient><linearGradient id="linearGradient-3" x1="50%" x2="50%" y1="0%" y2="100%"><stop offset="0%" stop-color="#131CFF"/><stop offset="100%" stop-color="#3B43FF"/></linearGradient></defs><g id="Page-1" fill="none" fill-rule="evenodd" stroke="none" stroke-width="1"><g id="1_1_explorer_all_services" transform="translate(-168.000000, -16.000000)"><g id="Group-17" transform="translate(168.000000, 10.000000)"><g id="Group-5" transform="translate(0.000000, 6.000000)"><g id="Group-11" transform="translate(0.000000, 0.920000)"><g id="Group-3"><path id="Rectangle" fill="url(#linearGradient-1)" d="M26.3929992,0.691402108 L42.1397226,9.27087532 C43.1912375,9.84378459 43.845614,10.9455166 43.845614,12.1429758 L43.845614,33.3964974 C43.845614,35.2028727 42.3812575,36.6672292 40.5748822,36.6672292 C40.0281497,36.6672292 39.4901394,36.5301751 39.0100418,36.2685979 L23.2633183,27.6891247 C22.2118034,27.1162154 21.5574269,26.0144834 21.5574269,24.8170242 L21.5574269,3.56350261 C21.5574269,1.75712729 23.0217834,0.29277076 24.8281588,0.29277076 C25.3748912,0.29277076 25.9129016,0.429824857 26.3929992,0.691402108 Z"/><path id="Rectangle" fill="url(#linearGradient-2)" d="M4.89720119,0.738344772 L20.9444927,9.95256973 C21.231508,10.1173716 21.4918473,10.324782 21.7166163,10.5677148 L42.4589731,32.9862879 C43.320812,33.9177732 43.2643526,35.3715497 42.3328673,36.2333886 C41.6131254,36.8993161 40.5501009,37.0351316 39.6860498,36.5715548 L22.4085729,27.3019216 C22.0290168,27.0982838 21.6934213,26.821681 21.4210539,26.4879937 L2.60644874,3.43752214 C1.97783757,2.66738724 2.09256521,1.53347952 2.8627001,0.904868342 C3.44078943,0.433011515 4.25007726,0.366771443 4.89720119,0.738344772 Z"/><path id="Rectangle" fill="url(#linearGradient-3)" d="M4.83557227,0.691402108 L20.5822957,9.27087532 C21.6338106,9.84378459 22.2881871,10.9455166 22.2881871,12.1429758 L22.2881871,33.3964974 C22.2881871,35.2028727 20.8238306,36.6672292 19.0174553,36.6672292 C18.4707228,36.6672292 17.9327125,36.5301751 17.4526149,36.2685979 L1.70589143,27.6891247 C0.654376549,27.1162154 -4.09884639e-15,26.0144834 -4.68958206e-15,24.8170242 L-4.68958206e-15,3.56350261 C-5.35488844e-15,1.75712729 1.46435653,0.29277076 3.27073185,0.29277076 C3.81746431,0.29277076 4.35547466,0.429824857 4.83557227,0.691402108 Z" opacity=".84"/></g></g></g></g></g></g></svg>