<?xml version="1.0" encoding="UTF-8"?>
<svg width="24px" height="20px" viewBox="0 0 24 20" version="1.1" xmlns="http://www.w3.org/2000/svg" xmlns:xlink="http://www.w3.org/1999/xlink">
    <title>twitter-logo@logotyp.us</title>
    <g id="Page-1" stroke="none" stroke-width="1" fill="none" fill-rule="evenodd">
        <g id="1_1_explorer_all_services" transform="translate(-1236.000000, -1527.000000)" fill="#FFFFFF" fill-rule="nonzero">
            <g id="Group-16" transform="translate(0.000000, 1471.000000)">
                <g id="Group-15" transform="translate(1168.000000, 40.000000)">
                    <g id="Group-13" transform="translate(56.000000, 0.000000)">
                        <g id="twitter-logo@logotyp.us" transform="translate(12.000000, 16.000000)">
                            <path d="M21.5577582,5.5202002 C21.5577582,5.30710242 21.5534093,5.09497106 21.5438255,4.8837256 C22.5052622,4.18870145 23.3409019,3.32133065 24.0000099,2.33396147 C23.1177371,2.72617092 22.1683003,2.99016735 21.1723138,3.10919929 C22.1889175,2.49962365 22.9693901,1.53528772 23.3375999,0.385719392 C22.3862302,0.949711755 21.3326606,1.35963909 20.2108771,1.58095153 C19.312339,0.623863818 18.033108,0.0252410514 16.6166439,0.0252410514 C13.8974324,0.0252410514 11.6923616,2.2303924 11.6923616,4.94855694 C11.6923616,5.33496781 11.7356094,5.71074796 11.8200914,6.07130683 C7.72766362,5.86537674 4.09880001,3.90602072 1.67016175,0.92667851 C1.24726815,1.65431966 1.00340568,2.49962365 1.00340568,3.40154433 C1.00340568,5.10987019 1.87270935,6.61798399 3.19462433,7.50025393 C2.3867695,7.47528782 1.62788045,7.25349217 0.964587415,6.88439649 C0.963862593,6.9050942 0.963862593,6.92522816 0.963862593,6.94729497 C0.963862593,9.33196067 2.66115505,11.3229673 4.91422521,11.7741289 C4.50051269,11.8868791 4.06513604,11.9473615 3.61582668,11.9473615 C3.29907929,11.9473615 2.99038549,11.9161941 2.69038955,11.858611 C3.31728039,13.8150677 5.13505443,15.23878 7.29019304,15.2785647 C5.60490042,16.5995133 3.48189561,17.3862677 1.1745443,17.3862677 C0.777583236,17.3862677 0.385454318,17.3636371 9.87271112e-06,17.3180539 C2.17922869,18.7148672 4.76684465,19.5298897 7.5479882,19.5298897 C16.6048052,19.5302118 21.5577582,12.0268504 21.5577582,5.5202002 Z" id="Path"></path>
                        </g>
                    </g>
                </g>
            </g>
        </g>
    </g>
</svg>